<svg id="logo" data-name="logo" xmlns="http://www.w3.org/2000/svg" viewBox="0 0 39.69 39.69"><defs><style>.cls-1{fill:#00ad5d;}</style></defs><title>logo-2</title><path class="cls-1" d="M2.38.66H4.16A5.73,5.73,0,0,1,6.24.93a2.18,2.18,0,0,1,1,.86,2.68,2.68,0,0,1,.37,1.44A2.41,2.41,0,0,1,7.2,4.68a2.56,2.56,0,0,1-1.26.89L8,9.49H6.19l-2-3.74H4.06V9.49H2.38ZM4.06,4.11h.52A2.1,2.1,0,0,0,5.69,3.9.78.78,0,0,0,6,3.21a.88.88,0,0,0-.15-.51.81.81,0,0,0-.4-.3,2.78,2.78,0,0,0-.92-.1H4.06Z"/><path class="cls-1" d="M9.4.66h4.82V2.31H11.06V3.9h3.16V5.52H11.06V7.84h3.16V9.49H9.4Z"/><path class="cls-1" d="M18.47.66h1.71l3.39,8.83H21.83l-.69-1.82H17.53l-.71,1.82H15.07ZM19.34,3,18.15,6h2.36Z"/><path class="cls-1" d="M24.87.66h1.68V7.89H29v1.6H24.87Z"/><path class="cls-1" d="M2.27,15.41h2a6.55,6.55,0,0,1,2.86.48,3.71,3.71,0,0,1,1.54,1.55A5.07,5.07,0,0,1,9.26,20a5.14,5.14,0,0,1-.33,1.87A3.88,3.88,0,0,1,8,23.24,3.24,3.24,0,0,1,6.7,24a9,9,0,0,1-2.41.22h-2ZM3.94,17V22.6h.78a4.05,4.05,0,0,0,1.67-.26,2.1,2.1,0,0,0,.85-.89,3.28,3.28,0,0,0,.33-1.54,2.94,2.94,0,0,0-.79-2.18A3.12,3.12,0,0,0,4.51,17Z"/><path class="cls-1" d="M13.56,15.41h1.7l3.4,8.83H16.91l-.69-1.82h-3.6l-.72,1.82H10.16Zm.86,2.34-1.18,3H15.6Z"/><path class="cls-1" d="M19.09,15.41H24v1.66H22.36v7.17H20.65V17.07H19.09Z"/><path class="cls-1" d="M27.81,15.41h1.71l3.39,8.83H31.16l-.69-1.82h-3.6l-.72,1.82H24.41Zm.86,2.34-1.18,3h2.36Z"/><path class="cls-1" d="M1.39,30.16H6.27v1.66H4.66V39H3V31.82H1.39Z"/><path class="cls-1" d="M10.12,30.16h1.7L15.21,39H13.47l-.69-1.82H9.18L8.46,39H6.71ZM11,32.5l-1.19,3h2.36Z"/><path class="cls-1" d="M16.51,30.16h1.68v7.22h2.45V39H16.51Z"/><path class="cls-1" d="M21.93,30.16h1.7v3l2.4-3h2L25,34.1,28.34,39h-2l-2.72-3.93V39h-1.7Z"/><path class="cls-1" d="M34.17,31.36l-1.24,1.1a1.76,1.76,0,0,0-1.34-.91.8.8,0,0,0-.54.17.52.52,0,0,0-.21.4.68.68,0,0,0,.15.42,11.08,11.08,0,0,0,1.24,1.14c.64.53,1,.87,1.16,1a3.58,3.58,0,0,1,.73,1,2.46,2.46,0,0,1,.21,1,2.36,2.36,0,0,1-.75,1.79,2.74,2.74,0,0,1-2,.71A3,3,0,0,1,30,38.75a3.65,3.65,0,0,1-1.2-1.46l1.41-.85c.43.78.91,1.17,1.47,1.17a1,1,0,0,0,.72-.25.74.74,0,0,0,.3-.58,1,1,0,0,0-.22-.6,6.64,6.64,0,0,0-1-.92,9.75,9.75,0,0,1-1.87-1.82,2.29,2.29,0,0,1-.42-1.27,2.13,2.13,0,0,1,.7-1.58,2.48,2.48,0,0,1,1.73-.65,2.78,2.78,0,0,1,1.26.3A4.62,4.62,0,0,1,34.17,31.36Z"/><path class="cls-1" d="M38,3.92a3.59,3.59,0,0,1-.49,1.83,3.67,3.67,0,0,1-5,1.34,3.74,3.74,0,0,1-1.34-1.34,3.59,3.59,0,0,1-.49-1.83,3.53,3.53,0,0,1,.49-1.82,3.67,3.67,0,0,1,6.35,0A3.53,3.53,0,0,1,38,3.92Zm-.76,0A2.89,2.89,0,0,0,34.3,1a2.94,2.94,0,0,0-2.53,1.45,2.92,2.92,0,0,0-.38,1.44,2.85,2.85,0,0,0,1.45,2.5,2.93,2.93,0,0,0,1.45.38,3,3,0,0,0,1.46-.38,2.91,2.91,0,0,0,1.07-1A2.89,2.89,0,0,0,37.2,3.93Zm-1.85.66h.84a1.56,1.56,0,0,1-.56,1,1.78,1.78,0,0,1-1.18.4A2,2,0,0,1,33,5.43a2.21,2.21,0,0,1-.57-1.57A2.09,2.09,0,0,1,33,2.34a2,2,0,0,1,1.46-.59,1.85,1.85,0,0,1,1.17.36,1.73,1.73,0,0,1,.6,1h-.84A.93.93,0,0,0,35,2.61a.92.92,0,0,0-.6-.19,1.14,1.14,0,0,0-.88.38,1.53,1.53,0,0,0-.34,1.05,1.59,1.59,0,0,0,.36,1.09,1.14,1.14,0,0,0,.88.42.94.94,0,0,0,.61-.21A.85.85,0,0,0,35.35,4.59Z"/></svg>