<svg xmlns="http://www.w3.org/2000/svg" viewBox="0 0 200 200"><defs><style>.cls-1{fill:#221e1f;}.cls-2{fill:#fff;}</style></defs><title>re</title><g id="Layer_1" data-name="Layer 1"><rect class="cls-1" x="-0.76" y="-1.38" width="202.08" height="203"/></g><g id="Layer_2" data-name="Layer 2"><path class="cls-2" d="M27.84,55.48h13v92.35H27.84Zm5.65,41H65a12,12,0,0,0,6.53-1.78,11.65,11.65,0,0,0,4.42-5,19,19,0,0,0,0-15,11.76,11.76,0,0,0-4.38-5A12.07,12.07,0,0,0,65,67.79H33.49V55.48h31a29,29,0,0,1,14.06,3.3,23.13,23.13,0,0,1,9.39,9.36,28.5,28.5,0,0,1,3.34,14,28.37,28.37,0,0,1-3.37,14,23.28,23.28,0,0,1-9.43,9.36,28.67,28.67,0,0,1-14,3.3h-31Zm25.14,9.46L71.51,103l23.62,44.81H79.77Z"/><path class="cls-2" d="M116.51,55.54h13v92.29h-13Zm6.28,0h53V67.85h-53Zm0,40.31h46v12.31h-46Zm0,39.67h53v12.31h-53Z"/><path class="cls-2" d="M114.89,45.2V52H86.34V45.2ZM104.2,62.89H97V34.34h7.17Z"/><path class="cls-2" d="M114.89,97.54v6.82H86.34V97.54ZM104.2,115.22H97V86.67h7.17Z"/><path class="cls-2" d="M114.89,149.54v6.82H86.34v-6.82ZM104.2,167.22H97V138.67h7.17Z"/></g></svg>